<?xml version="1.0" encoding="UTF-8" standalone="no"?>
<!-- Created with Inkscape (http://www.inkscape.org/) -->

<svg
   xmlns:dc="http://purl.org/dc/elements/1.1/"
   xmlns:cc="http://creativecommons.org/ns#"
   xmlns:rdf="http://www.w3.org/1999/02/22-rdf-syntax-ns#"
   xmlns:svg="http://www.w3.org/2000/svg"
   xmlns="http://www.w3.org/2000/svg"
   xmlns:xlink="http://www.w3.org/1999/xlink"
   xmlns:sodipodi="http://sodipodi.sourceforge.net/DTD/sodipodi-0.dtd"
   xmlns:inkscape="http://www.inkscape.org/namespaces/inkscape"
   width="200"
   height="160"
   viewBox="0 0 52.916665 42.333335"
   version="1.1"
   id="svg8"
   inkscape:version="0.92.3 (2405546, 2018-03-11)"
   sodipodi:docname="art1.svg">
  <defs
     id="defs2" />
  <sodipodi:namedview
     id="base"
     pagecolor="#ffffff"
     bordercolor="#666666"
     borderopacity="1.0"
     inkscape:pageopacity="0.0"
     inkscape:pageshadow="2"
     inkscape:zoom="1"
     inkscape:cx="100.99071"
     inkscape:cy="37.988112"
     inkscape:document-units="mm"
     inkscape:current-layer="layer1"
     showgrid="false"
     units="px"
     inkscape:window-width="1855"
     inkscape:window-height="1056"
     inkscape:window-x="1985"
     inkscape:window-y="24"
     inkscape:window-maximized="1" />
  <metadata
     id="metadata5">
    <rdf:RDF>
      <cc:Work
         rdf:about="">
        <dc:format>image/svg+xml</dc:format>
        <dc:type
           rdf:resource="http://purl.org/dc/dcmitype/StillImage" />
        <dc:title></dc:title>
      </cc:Work>
    </rdf:RDF>
  </metadata>
  <g
     inkscape:label="Layer 1"
     inkscape:groupmode="layer"
     id="layer1"
     transform="translate(0,-254.66665)">
    <circle
       style="opacity:1;vector-effect:none;fill:#ea6248;fill-opacity:1;stroke:none;stroke-width:0.05022949;stroke-linecap:round;stroke-linejoin:round;stroke-miterlimit:4;stroke-dasharray:none;stroke-dashoffset:0;stroke-opacity:1"
       id="path815"
       cx="26.458334"
       cy="291.77271"
       r="2.0978892" />
    <rect
       style="opacity:1;vector-effect:none;fill:#ea6248;fill-opacity:1;stroke:none;stroke-width:0.04295744;stroke-linecap:round;stroke-linejoin:round;stroke-miterlimit:4;stroke-dasharray:none;stroke-dashoffset:0;stroke-opacity:1"
       id="rect817"
       width="2.8569794"
       height="3.8835626"
       x="25.029844"
       y="286.37689" />
    <path
       style="opacity:1;vector-effect:none;fill:#ea6248;fill-opacity:1;stroke:none;stroke-width:0.29999998;stroke-linecap:round;stroke-linejoin:round;stroke-miterlimit:4;stroke-dasharray:none;stroke-dashoffset:0;stroke-opacity:1"
       d="M 122.29492 95.322266 A 22.612419 22.612419 0 0 1 99.945312 114.67773 A 22.612419 22.612419 0 0 1 77.595703 95.367188 A 22.612419 22.612419 0 0 0 77.332031 98.623047 A 22.612419 22.612419 0 0 0 99.945312 121.23633 A 22.612419 22.612419 0 0 0 122.55664 98.623047 A 22.612419 22.612419 0 0 0 122.29492 95.322266 z "
       transform="matrix(0.26458333,0,0,0.26458333,0,254.66665)"
       id="path819" />
    <path
       style="opacity:1;vector-effect:none;fill:#ea6248;fill-opacity:1;fill-rule:evenodd;stroke:none;stroke-width:0.07937499;stroke-linecap:round;stroke-linejoin:round;stroke-miterlimit:4;stroke-dasharray:none;stroke-dashoffset:0;stroke-opacity:1"
       d="m 25.158495,284.93064 v -20.56449 l 1.261722,-4.70881 1.308499,4.88339 v 20.95971 h -2.414822 z"
       id="path837"
       inkscape:connector-curvature="0" />
    <path
       style="opacity:1;vector-effect:none;fill:#ea6248;fill-opacity:1;fill-rule:evenodd;stroke:none;stroke-width:0.06581882;stroke-linecap:round;stroke-linejoin:round;stroke-miterlimit:4;stroke-dasharray:none;stroke-dashoffset:0;stroke-opacity:1"
       d="m 23.842708,269.06602 c -2.658757,-0.82895 -4.773148,-2.01857 -6.762165,-5.11494 L 6.5267666,274.9262 c 2.4030192,1.61623 7.4169674,-4.00748 10.4119734,-7.17782 l -9.3274966,14.43816 c 2.8270466,1.50818 7.7847366,-6.86412 11.5021896,-12.6667 L 12.189132,289.495 c 4.073615,0.0353 7.131709,-13.15872 9.183618,-18.73937 0.999497,0.39002 1.640314,0.58634 2.46753,0.73528 z"
       id="path853"
       inkscape:connector-curvature="0"
       sodipodi:nodetypes="cccccccccc" />
    <g
       id="g946"
       transform="translate(-0.0167965)">
      <path
         sodipodi:nodetypes="ccccc"
         inkscape:connector-curvature="0"
         id="path819-6"
         d="m 26.460399,283.47025 c -3.023232,-0.16671 -4.264338,-1.17612 -5.913334,-3.58292 -0.04399,0.28509 -0.0673,0.57299 -0.06976,0.86144 -1.27e-4,3.30443 2.67867,5.98323 5.983097,5.9831 z"
         style="opacity:1;vector-effect:none;fill:#ea6248;fill-opacity:1;stroke:none;stroke-width:0.079375;stroke-linecap:round;stroke-linejoin:round;stroke-miterlimit:4;stroke-dasharray:none;stroke-dashoffset:0;stroke-opacity:1" />
      <use
         height="100%"
         width="100%"
         transform="matrix(-1,0,0,1,52.920804,3.8574171e-8)"
         id="use942"
         xlink:href="#path819-6"
         y="0"
         x="0" />
    </g>
    <use
       x="0"
       y="0"
       xlink:href="#path853"
       id="use967"
       transform="matrix(-1,0,0,1,52.944013,0)"
       width="100%"
       height="100%" />
  </g>
  <g
     inkscape:groupmode="layer"
     id="layer2"
     inkscape:label="Layer 2"
     style="display:none">
    <circle
       transform="translate(0,-254.66665)"
       style="opacity:1;vector-effect:none;fill:none;fill-opacity:1;stroke:#000000;stroke-width:0.08810269;stroke-linecap:round;stroke-linejoin:round;stroke-miterlimit:4;stroke-dasharray:none;stroke-dashoffset:0;stroke-opacity:1"
       id="path860"
       cx="26.443605"
       cy="275.72668"
       r="19.922153" />
    <circle
       transform="translate(0,-254.66665)"
       style="opacity:1;vector-effect:none;fill:none;fill-opacity:1;stroke:#000000;stroke-width:0.04761585;stroke-linecap:round;stroke-linejoin:round;stroke-miterlimit:4;stroke-dasharray:none;stroke-dashoffset:0;stroke-opacity:1"
       id="path860-5"
       cx="26.443605"
       cy="258.59561"
       r="10.767097" />
    <circle
       transform="translate(0,-254.66665)"
       style="opacity:1;vector-effect:none;fill:none;fill-opacity:1;stroke:#000000;stroke-width:0.05831752;stroke-linecap:round;stroke-linejoin:round;stroke-miterlimit:4;stroke-dasharray:none;stroke-dashoffset:0;stroke-opacity:1"
       id="path860-5-3"
       cx="26.443605"
       cy="258.59561"
       r="13.187001" />
  </g>
</svg>
