<?xml version="1.0" encoding="UTF-8" standalone="no"?>
<!-- Generator: Adobe Illustrator 19.0.0, SVG Export Plug-In . SVG Version: 6.00 Build 0)  -->

<svg
   xmlns:dc="http://purl.org/dc/elements/1.1/"
   xmlns:cc="http://creativecommons.org/ns#"
   xmlns:rdf="http://www.w3.org/1999/02/22-rdf-syntax-ns#"
   xmlns:svg="http://www.w3.org/2000/svg"
   xmlns="http://www.w3.org/2000/svg"
   xmlns:sodipodi="http://sodipodi.sourceforge.net/DTD/sodipodi-0.dtd"
   xmlns:inkscape="http://www.inkscape.org/namespaces/inkscape"
   version="1.1"
   id="Capa_1"
   x="0px"
   y="0px"
   viewBox="0 0 311.6 311.6"
   style="enable-background:new 0 0 311.6 311.6;"
   xml:space="preserve"
   sodipodi:docname="inspiration.svg"
   inkscape:version="0.92.3 (2405546, 2018-03-11)"><metadata
   id="metadata4773"><rdf:RDF><cc:Work
       rdf:about=""><dc:format>image/svg+xml</dc:format><dc:type
         rdf:resource="http://purl.org/dc/dcmitype/StillImage" /></cc:Work></rdf:RDF></metadata><defs
   id="defs4771">
	

	

	

	

		
	
		
	
		
	
		
	</defs><sodipodi:namedview
   pagecolor="#ffffff"
   bordercolor="#666666"
   borderopacity="1"
   objecttolerance="10"
   gridtolerance="10"
   guidetolerance="10"
   inkscape:pageopacity="0"
   inkscape:pageshadow="2"
   inkscape:window-width="1855"
   inkscape:window-height="1056"
   id="namedview4769"
   showgrid="false"
   inkscape:zoom="2.8284271"
   inkscape:cx="211.51244"
   inkscape:cy="125.95263"
   inkscape:window-x="65"
   inkscape:window-y="24"
   inkscape:window-maximized="1"
   inkscape:current-layer="Capa_1" />




<g
   id="g4738">
</g>
<g
   id="g4740">
</g>
<g
   id="g4742">
</g>
<g
   id="g4744">
</g>
<g
   id="g4746">
</g>
<g
   id="g4748">
</g>
<g
   id="g4750">
</g>
<g
   id="g4752">
</g>
<g
   id="g4754">
</g>
<g
   id="g4756">
</g>
<g
   id="g4758">
</g>
<g
   id="g4760">
</g>
<g
   id="g4762">
</g>
<g
   id="g4764">
</g>
<g
   id="g4766">
</g>
<path
   sodipodi:type="star"
   style="opacity:1;vector-effect:none;fill:#3185fc;fill-opacity:1;stroke:none;stroke-width:0.29713863;stroke-linecap:round;stroke-linejoin:round;stroke-miterlimit:4;stroke-dasharray:none;stroke-dashoffset:0;stroke-opacity:1"
   id="path5336"
   sodipodi:sides="8"
   sodipodi:cx="155.8"
   sodipodi:cy="155.8"
   sodipodi:r1="155.76729"
   sodipodi:r2="108.72557"
   sodipodi:arg1="0.78539816"
   sodipodi:arg2="1.1780972"
   inkscape:flatsided="false"
   inkscape:rounded="0.1"
   inkscape:randomized="0"
   d="m 265.94411,265.94411 c -4.89452,4.89451 -62.14163,-12.34367 -68.53663,-9.69478 -6.39499,2.64889 -34.68558,55.31796 -41.60748,55.31796 -6.92189,0 -35.21247,-52.66906 -41.60747,-55.31796 -6.39499,-2.64889 -63.642115,14.5893 -68.536632,9.69478 -4.894517,-4.89452 12.343671,-62.14163 9.694778,-68.53663 C 52.701782,191.01249 0.03271516,162.7219 0.03271484,155.8 0.03271453,148.87811 52.701779,120.58753 55.350672,114.19253 57.999565,107.79754 40.76138,50.550415 45.655897,45.655898 c 4.894516,-4.894517 62.141633,12.343671 68.536623,9.694778 6.395,-2.648894 34.68559,-55.31796084 41.60748,-55.31796116 6.92189,-3.1e-7 35.21248,52.66906416 41.60747,55.31795716 6.395,2.648893 63.64212,-14.589292 68.53664,-9.694775 4.89451,4.894516 -12.34367,62.141633 -9.69478,68.536623 2.64889,6.395 55.31796,34.68559 55.31796,41.60748 0,6.92189 -52.66906,35.21248 -55.31796,41.60747 -2.64889,6.395 14.5893,63.64212 9.69478,68.53664 z" /></svg>