<?xml version="1.0" encoding="UTF-8" standalone="no"?>
<!-- Created with Inkscape (http://www.inkscape.org/) -->

<svg
   xmlns:dc="http://purl.org/dc/elements/1.1/"
   xmlns:cc="http://creativecommons.org/ns#"
   xmlns:rdf="http://www.w3.org/1999/02/22-rdf-syntax-ns#"
   xmlns:svg="http://www.w3.org/2000/svg"
   xmlns="http://www.w3.org/2000/svg"
   xmlns:sodipodi="http://sodipodi.sourceforge.net/DTD/sodipodi-0.dtd"
   xmlns:inkscape="http://www.inkscape.org/namespaces/inkscape"
   width="90.25341mm"
   height="47.627525mm"
   viewBox="0 0 90.253409 47.627526"
   version="1.1"
   id="svg8"
   inkscape:version="0.92.3 (2405546, 2018-03-11)"
   sodipodi:docname="coming-soon.svg">
  <defs
     id="defs2" />
  <sodipodi:namedview
     id="base"
     pagecolor="#ffffff"
     bordercolor="#666666"
     borderopacity="1.0"
     inkscape:pageopacity="0.0"
     inkscape:pageshadow="2"
     inkscape:zoom="1.4142136"
     inkscape:cx="219.18435"
     inkscape:cy="66.610913"
     inkscape:document-units="mm"
     inkscape:current-layer="layer1"
     showgrid="false"
     fit-margin-top="0"
     fit-margin-left="0"
     fit-margin-right="0"
     fit-margin-bottom="0"
     inkscape:window-width="1855"
     inkscape:window-height="1056"
     inkscape:window-x="65"
     inkscape:window-y="24"
     inkscape:window-maximized="1" />
  <metadata
     id="metadata5">
    <rdf:RDF>
      <cc:Work
         rdf:about="">
        <dc:format>image/svg+xml</dc:format>
        <dc:type
           rdf:resource="http://purl.org/dc/dcmitype/StillImage" />
        <dc:title></dc:title>
      </cc:Work>
    </rdf:RDF>
  </metadata>
  <g
     inkscape:label="Layer 1"
     inkscape:groupmode="layer"
     id="layer1"
     transform="translate(-43.93909,-35.471367)">
    <path
       inkscape:connector-curvature="0"
       id="path963"
       style="font-style:normal;font-variant:normal;font-weight:normal;font-stretch:normal;font-size:medium;line-height:125%;font-family:'8-bit Limit BRK';-inkscape-font-specification:'8-bit Limit BRK';letter-spacing:0px;word-spacing:-0.01px;fill:#ffffff;fill-opacity:1;stroke:none;stroke-width:0.26458332px;stroke-linecap:butt;stroke-linejoin:miter;stroke-opacity:1"
       d="m 45.59009,55.816766 v -3.3528 h -1.651 v -13.6652 h 1.651 v -1.676399 h 3.352799 v -1.651 h 5.283201 v 1.651 h 1.6764 v 3.606799 h -1.6764 v 1.6764 h -1.9304 v -3.3274 h -4.749801 v 13.1064 h 1.6764 v 1.6764 h 6.680201 v 1.9558 h -3.3528 v 1.651 h -5.2832 v -1.651 z" />
    <path
       inkscape:connector-curvature="0"
       id="path965"
       style="font-style:normal;font-variant:normal;font-weight:normal;font-stretch:normal;font-size:medium;line-height:125%;font-family:'8-bit Limit BRK';-inkscape-font-specification:'8-bit Limit BRK';letter-spacing:0px;word-spacing:-0.01px;fill:#ffffff;fill-opacity:1;stroke:none;stroke-width:0.26458332px;stroke-linecap:butt;stroke-linejoin:miter;stroke-opacity:1"
       d="m 58.091652,55.816766 v -3.3528 h -1.651 v -3.6068 h 1.651 v -1.6764 h 1.9558 v 5.0038 h 1.6764 v 1.6764 h 3.048 v -6.4262 h -1.651 v -1.6764 h -5.0038 v -1.9304 h 1.651 v -1.6764 h 5.2832 v 1.6764 h 1.6764 v 3.3528 h 1.6764 v 6.9596 h -1.6764 v 1.6764 h -3.3274 v 1.651 h -3.6322 v -1.651 z" />
    <path
       inkscape:connector-curvature="0"
       id="path967"
       style="font-style:normal;font-variant:normal;font-weight:normal;font-stretch:normal;font-size:medium;line-height:125%;font-family:'8-bit Limit BRK';-inkscape-font-specification:'8-bit Limit BRK';letter-spacing:0px;word-spacing:-0.01px;fill:#ffffff;fill-opacity:1;stroke:none;stroke-width:0.26458332px;stroke-linecap:butt;stroke-linejoin:miter;stroke-opacity:1"
       d="m 70.593215,48.857166 v -3.0988 h -1.651001 v -3.6068 h 3.606801 v 3.3528 h 1.6764 v 3.3274 h 1.397 v -3.3274 h 1.6764 v -3.3528 h 3.6068 v 3.6068 h -1.651 v 3.0988 h 1.651 v 6.9596 h -1.6764 v 1.651 h -1.9304 v -6.6548 h -1.397 v 3.302 h -1.9558 v -3.302 h -1.397 v 5.0038 h -1.6764 v 1.651 h -1.930401 v -8.6106 z" />
    <path
       style="font-style:normal;font-variant:normal;font-weight:normal;font-stretch:normal;font-size:medium;line-height:125%;font-family:'8-bit Limit BRK';-inkscape-font-specification:'8-bit Limit BRK';letter-spacing:0px;word-spacing:-0.01px;fill:#ffffff;fill-opacity:1;stroke:none;stroke-width:0.26458332px;stroke-linecap:butt;stroke-linejoin:miter;stroke-opacity:1"
       d="m 81.443777,47.460166 v -1.9558 h 3.3274 v -1.651 h 1.9304 v 11.9634 h -1.651 v 1.651 h -1.9558 v -10.0076 z"
       id="path997"
       inkscape:connector-curvature="0" />
    <path
       style="font-style:normal;font-variant:normal;font-weight:normal;font-stretch:normal;font-size:medium;line-height:125%;font-family:'8-bit Limit BRK';-inkscape-font-specification:'8-bit Limit BRK';letter-spacing:0px;word-spacing:-0.01px;fill:#5773ff;fill-opacity:1;stroke:none;stroke-width:0.26458332px;stroke-linecap:butt;stroke-linejoin:miter;stroke-opacity:1"
       d="m 81.443777,40.754566 v -1.9304 h 1.651 v -1.650999 h 1.9558 v 1.650999 h 1.651 v 1.9304 h -1.651 v 1.6764 h -1.9558 v -1.6764 z"
       id="path969"
       inkscape:connector-curvature="0" />
    <path
       inkscape:connector-curvature="0"
       id="path971"
       style="font-style:normal;font-variant:normal;font-weight:normal;font-stretch:normal;font-size:medium;line-height:125%;font-family:'8-bit Limit BRK';-inkscape-font-specification:'8-bit Limit BRK';letter-spacing:0px;word-spacing:-0.01px;fill:#ffffff;fill-opacity:1;stroke:none;stroke-width:0.26458332px;stroke-linecap:butt;stroke-linejoin:miter;stroke-opacity:1"
       d="m 87.248074,45.758366 v -1.9304 h 3.3274 v -1.6764 h 1.9558 v 1.651 h 1.397 v -1.651 h 3.6068 v 1.6764 h 1.6764 v 11.9888 h -1.6764 v 1.651 h -1.9304 v -13.3604 h -1.397 v 1.651 h -1.6764 v 10.0584 h -1.6764 v 1.651 h -1.9558 v -11.7094 z" />
    <path
       inkscape:connector-curvature="0"
       id="path973"
       style="font-style:normal;font-variant:normal;font-weight:normal;font-stretch:normal;font-size:medium;line-height:125%;font-family:'8-bit Limit BRK';-inkscape-font-specification:'8-bit Limit BRK';letter-spacing:0px;word-spacing:-0.01px;fill:#ffffff;fill-opacity:1;stroke:none;stroke-width:0.26458332px;stroke-linecap:butt;stroke-linejoin:miter;stroke-opacity:1"
       d="m 99.749636,59.144166 v -3.6322 h 1.651004 v -1.651 h 1.9558 v 5.0038 h 4.7244 v -4.7498 h -3.3274 v -1.6764 h -3.3528 v -3.3528 h -1.651004 v -5.2832 h 1.651004 v -1.651 h 10.3124 v 1.905 h -1.6764 v 3.3528 h -1.6764 v 1.6764 h -1.9304 v -5.0038 h -3.0734 v 4.7498 h 1.6764 v 1.6764 h 3.3274 v 1.6764 h 1.6764 v 1.651 h 1.6764 v 5.3086 h -1.6764 v 1.651 h -8.636 v -1.651 z" />
    <path
       inkscape:connector-curvature="0"
       id="path976"
       style="font-style:normal;font-variant:normal;font-weight:normal;font-stretch:normal;font-size:medium;line-height:125%;font-family:'8-bit Limit BRK';-inkscape-font-specification:'8-bit Limit BRK';letter-spacing:0px;word-spacing:-0.01px;fill:#ffffff;fill-opacity:1;stroke:none;stroke-width:0.26458332px;stroke-linecap:butt;stroke-linejoin:miter;stroke-opacity:1"
       d="m 84.72441,81.447894 v -1.9558 h 1.651 v -1.651 h 1.9558 v 1.651 h 4.7244 v -3.0734 h -1.651 v -1.6764 h -1.6764 v -1.6764 h -1.6764 v -1.6764 h -1.6764 v -1.6764 h -1.651 v -5.2832 h 1.651 v -1.676399 h 1.6764 v -1.651 h 5.2832 v 1.651 h 1.6764 v 1.955799 h -1.6764 v 1.651 h -1.9304 v -1.651 h -3.0734 v 3.0734 h 1.6764 v 1.6764 h 1.6764 v 1.6764 h 1.651 v 1.6764 h 1.6764 v 1.6764 h 1.6764 v 5.2832 h -1.6764 v 1.6764 h -3.3274 v 1.651 h -5.3086 v -1.651 z" />
    <path
       inkscape:connector-curvature="0"
       id="path978"
       style="font-style:normal;font-variant:normal;font-weight:normal;font-stretch:normal;font-size:medium;line-height:125%;font-family:'8-bit Limit BRK';-inkscape-font-specification:'8-bit Limit BRK';letter-spacing:0px;word-spacing:-0.01px;fill:#ffffff;fill-opacity:1;stroke:none;stroke-width:0.26458332px;stroke-linecap:butt;stroke-linejoin:miter;stroke-opacity:1"
       d="m 98.876973,81.447894 v -3.3528 h -1.651 v -3.6068 h 1.651 v -1.6764 h 1.955797 v 5.0038 h 1.6764 v 1.6764 h 3.048 v -6.4262 h -1.651 v -1.6764 h -5.003797 v -1.9304 h 1.650997 v -1.6764 h 5.2832 v 1.6764 h 1.6764 v 3.3528 h 1.6764 v 6.9596 h -1.6764 v 1.6764 h -3.3274 v 1.651 h -3.6322 v -1.651 z" />
    <path
       inkscape:connector-curvature="0"
       id="path980"
       style="font-style:normal;font-variant:normal;font-weight:normal;font-stretch:normal;font-size:medium;line-height:125%;font-family:'8-bit Limit BRK';-inkscape-font-specification:'8-bit Limit BRK';letter-spacing:0px;word-spacing:-0.01px;fill:#ffffff;fill-opacity:1;stroke:none;stroke-width:0.26458332px;stroke-linecap:butt;stroke-linejoin:miter;stroke-opacity:1"
       d="m 111.37854,81.447894 v -3.3528 h -1.651 v -3.6068 h 1.651 v -1.6764 h 1.9558 v 5.0038 h 1.6764 v 1.6764 h 3.04799 v -6.4262 h -1.651 v -1.6764 h -5.00379 v -1.9304 h 1.651 v -1.6764 h 5.28319 v 1.6764 h 1.6764 v 3.3528 h 1.6764 v 6.9596 h -1.6764 v 1.6764 h -3.3274 v 1.651 h -3.63219 v -1.651 z" />
    <path
       inkscape:connector-curvature="0"
       id="path982"
       style="font-style:normal;font-variant:normal;font-weight:normal;font-stretch:normal;font-size:medium;line-height:125%;font-family:'8-bit Limit BRK';-inkscape-font-specification:'8-bit Limit BRK';letter-spacing:0px;word-spacing:-0.01px;fill:#ffffff;fill-opacity:1;stroke:none;stroke-width:0.26458332px;stroke-linecap:butt;stroke-linejoin:miter;stroke-opacity:1"
       d="m 122.2291,71.389494 v -1.9304 h 3.3274 v -1.6764 h 1.9558 v 1.651 h 1.397 v -1.651 h 3.6068 v 1.6764 h 1.6764 v 11.9888 h -1.6764 v 1.651 h -1.9304 v -13.3604 h -1.397 v 1.651 h -1.6764 v 10.0584 h -1.6764 v 1.651 h -1.9558 v -11.7094 z" />
  </g>
</svg>
