<?xml version="1.0" encoding="UTF-8" standalone="no"?>
<!-- Created with Inkscape (http://www.inkscape.org/) -->

<svg
   xmlns:dc="http://purl.org/dc/elements/1.1/"
   xmlns:cc="http://creativecommons.org/ns#"
   xmlns:rdf="http://www.w3.org/1999/02/22-rdf-syntax-ns#"
   xmlns:svg="http://www.w3.org/2000/svg"
   xmlns="http://www.w3.org/2000/svg"
   xmlns:sodipodi="http://sodipodi.sourceforge.net/DTD/sodipodi-0.dtd"
   xmlns:inkscape="http://www.inkscape.org/namespaces/inkscape"
   width="141.787mm"
   height="61.729462mm"
   viewBox="0 0 141.787 61.729462"
   version="1.1"
   id="svg8"
   inkscape:version="0.92.3 (2405546, 2018-03-11)"
   sodipodi:docname="logo.svg">
  <defs
     id="defs2" />
  <sodipodi:namedview
     id="base"
     pagecolor="#ffffff"
     bordercolor="#666666"
     borderopacity="1.0"
     inkscape:pageopacity="0.0"
     inkscape:pageshadow="2"
     inkscape:zoom="1"
     inkscape:cx="310.74981"
     inkscape:cy="101.86222"
     inkscape:document-units="mm"
     inkscape:current-layer="layer1"
     showgrid="false"
     fit-margin-top="0"
     fit-margin-left="0"
     fit-margin-right="0"
     fit-margin-bottom="0"
     inkscape:window-width="1855"
     inkscape:window-height="1056"
     inkscape:window-x="1985"
     inkscape:window-y="24"
     inkscape:window-maximized="1" />
  <metadata
     id="metadata5">
    <rdf:RDF>
      <cc:Work
         rdf:about="">
        <dc:format>image/svg+xml</dc:format>
        <dc:type
           rdf:resource="http://purl.org/dc/dcmitype/StillImage" />
        <dc:title></dc:title>
      </cc:Work>
    </rdf:RDF>
  </metadata>
  <g
     inkscape:label="Layer 1"
     inkscape:groupmode="layer"
     id="layer1"
     transform="translate(-27.782513,-32.124734)">
    <path
       inkscape:connector-curvature="0"
       id="path894"
       style="font-style:normal;font-variant:normal;font-weight:normal;font-stretch:normal;font-size:medium;line-height:125%;font-family:'8-bit Limit BRK';-inkscape-font-specification:'8-bit Limit BRK';letter-spacing:0px;word-spacing:-0.01px;fill:#ffffff;fill-opacity:1;stroke:none;stroke-width:0.26458332px;stroke-linecap:butt;stroke-linejoin:miter;stroke-opacity:1"
       d="m 27.782513,36.430576 v -4.305842 h 6.307149 v 3.972291 h 2.001307 v 3.972291 h 1.667754 v -5.973598 h 2.001307 v -1.970984 h 2.304536 V 58.384307 H 39.76003 v -3.972291 h -2.001307 v -4.002614 h -2.001305 v -3.972291 h -1.667756 v 9.976212 h -2.001307 v 1.970984 H 29.753497 V 36.430576 Z" />
    <path
       inkscape:connector-curvature="0"
       id="path896"
       style="font-style:normal;font-variant:normal;font-weight:normal;font-stretch:normal;font-size:medium;line-height:125%;font-family:'8-bit Limit BRK';-inkscape-font-specification:'8-bit Limit BRK';letter-spacing:0px;word-spacing:-0.01px;fill:#ffffff;fill-opacity:1;stroke:none;stroke-width:0.26458332px;stroke-linecap:butt;stroke-linejoin:miter;stroke-opacity:1"
       d="m 44.678015,56.413323 v -4.002614 h -1.970984 v -4.305843 h 1.970984 V 46.10356 h 2.334858 v 5.973598 h 2.001307 v 2.001306 h 3.63874 v -7.671676 h -1.970984 v -2.001307 h -5.973598 v -2.304535 h 1.970984 v -2.001307 h 6.307149 v 2.001307 h 2.001307 v 4.002614 h 2.001307 v 8.308456 h -2.001307 v 2.001307 h -3.972291 v 1.970984 h -4.336165 v -1.970984 z" />
    <path
       inkscape:connector-curvature="0"
       id="path898"
       style="font-style:normal;font-variant:normal;font-weight:normal;font-stretch:normal;font-size:medium;line-height:125%;font-family:'8-bit Limit BRK';-inkscape-font-specification:'8-bit Limit BRK';letter-spacing:0px;word-spacing:-0.01px;fill:#ffffff;fill-opacity:1;stroke:none;stroke-width:0.26458332px;stroke-linecap:butt;stroke-linejoin:miter;stroke-opacity:1"
       d="M 59.602534,56.443645 V 52.441032 H 57.63155 v -8.308457 h 1.970984 v -2.001307 h 4.002614 v -2.001306 h 6.307149 v 2.001306 h 2.001307 v 4.305843 h -2.001307 v 1.970984 h -2.304535 v -3.941968 h -5.67037 v 7.641353 h 2.001307 v 2.001307 h 7.974905 v 2.334858 H 67.91099 v 1.970984 h -6.307149 v -1.970984 z" />
    <path
       inkscape:connector-curvature="0"
       id="path900"
       style="font-style:normal;font-variant:normal;font-weight:normal;font-stretch:normal;font-size:medium;line-height:125%;font-family:'8-bit Limit BRK';-inkscape-font-specification:'8-bit Limit BRK';letter-spacing:0px;word-spacing:-0.01px;fill:#ffffff;fill-opacity:1;stroke:none;stroke-width:0.26458332px;stroke-linecap:butt;stroke-linejoin:miter;stroke-opacity:1"
       d="M 76.52836,56.413323 V 46.406788 h -3.972291 v -2.304535 h 1.970984 v -2.001307 h 2.001307 v -6.003921 h 2.001307 v -1.970984 h 2.334858 v 7.974905 h 5.973597 v 2.304535 h -2.001307 v 2.001307 h -3.97229 v 7.671676 h 3.97229 v 2.334859 H 82.83551 v 1.970984 h -4.305843 v -1.970984 z" />
    <path
       inkscape:connector-curvature="0"
       id="path902"
       style="font-style:normal;font-variant:normal;font-weight:normal;font-stretch:normal;font-size:medium;line-height:125%;font-family:'8-bit Limit BRK';-inkscape-font-specification:'8-bit Limit BRK';letter-spacing:0px;word-spacing:-0.01px;fill:#ffffff;fill-opacity:1;stroke:none;stroke-width:0.26458332px;stroke-linecap:butt;stroke-linejoin:miter;stroke-opacity:1"
       d="M 89.451572,56.413323 V 44.405481 h -1.970984 v -2.304535 h 3.972291 v -2.001307 h 2.334858 V 54.078464 H 97.4568 V 42.100946 h 2.001307 v -2.001307 h 2.304533 v 16.313684 h -2.001305 v 1.970984 H 97.4568 v -1.970984 h -1.667756 v 1.970984 h -4.336165 v -1.970984 z" />
    <path
       inkscape:connector-curvature="0"
       id="path904"
       style="font-style:normal;font-variant:normal;font-weight:normal;font-stretch:normal;font-size:medium;line-height:125%;font-family:'8-bit Limit BRK';-inkscape-font-specification:'8-bit Limit BRK';letter-spacing:0px;word-spacing:-0.01px;fill:#ffffff;fill-opacity:1;stroke:none;stroke-width:0.26458332px;stroke-linecap:butt;stroke-linejoin:miter;stroke-opacity:1"
       d="m 102.40511,44.405481 v -2.304535 h 3.97229 v -2.001307 h 2.33486 v 3.972291 h 1.66775 v -1.970984 h 2.00131 v -2.001307 h 2.30453 v 2.001307 h 2.00131 v 4.305842 h -2.00131 v 1.970984 h -2.30453 v -3.941968 h -1.66776 v 1.970984 h -2.0013 v 9.672983 h 1.97098 v 2.304536 h -6.30715 V 44.405481 Z" />
    <path
       inkscape:connector-curvature="0"
       id="path906"
       style="font-style:normal;font-variant:normal;font-weight:normal;font-stretch:normal;font-size:medium;line-height:125%;font-family:'8-bit Limit BRK';-inkscape-font-specification:'8-bit Limit BRK';letter-spacing:0px;word-spacing:-0.01px;fill:#ffffff;fill-opacity:1;stroke:none;stroke-width:0.26458332px;stroke-linecap:butt;stroke-linejoin:miter;stroke-opacity:1"
       d="m 117.32963,44.405481 v -2.304535 h 3.97229 v -2.001307 h 2.33486 v 1.970984 h 1.66775 v -1.970984 h 4.30585 v 2.001307 h 2.0013 v 14.312377 h -2.0013 v 1.970984 h -2.30454 v -15.94981 h -1.66775 v 1.970984 h -2.00131 v 12.007842 h -2.00131 v 1.970984 h -2.33486 V 44.405481 Z" />
    <path
       inkscape:connector-curvature="0"
       id="path908"
       style="font-style:normal;font-variant:normal;font-weight:normal;font-stretch:normal;font-size:medium;line-height:125%;font-family:'8-bit Limit BRK';-inkscape-font-specification:'8-bit Limit BRK';letter-spacing:0px;word-spacing:-0.01px;fill:#ffffff;fill-opacity:1;stroke:none;stroke-width:0.26458332px;stroke-linecap:butt;stroke-linejoin:miter;stroke-opacity:1"
       d="m 134.22513,56.413323 v -2.001307 h -1.97098 V 44.102253 h 1.97098 v -2.001307 h 4.00261 v -2.001307 h 4.30585 v 2.001307 h 4.00261 v 4.305842 h -2.00131 v 2.001307 h -2.0013 v 1.970984 h -4.27552 v -2.274213 h 3.94196 v -3.669062 h -5.64004 v 7.641354 h 2.0013 v 2.001306 h 5.9736 v 2.334859 h -3.97229 v 1.970984 h -4.33616 v -1.970984 z" />
    <path
       inkscape:connector-curvature="0"
       id="path881"
       style="font-style:normal;font-variant:normal;font-weight:normal;font-stretch:normal;font-size:medium;line-height:125%;font-family:'8-bit Limit BRK';-inkscape-font-specification:'8-bit Limit BRK';letter-spacing:0px;word-spacing:-0.01px;fill:#ffffff;fill-opacity:1;stroke:none;stroke-width:0.26458332px;stroke-linecap:butt;stroke-linejoin:miter;stroke-opacity:1"
       d="m 96.655428,87.910919 v -2.334858 h 1.970984 v -1.970984 h 2.334858 v 1.970984 h 5.64005 v -3.669063 h -1.97099 v -2.001307 h -2.0013 v -2.001307 h -2.00131 V 75.903077 H 98.626412 V 73.90177 h -1.970984 v -6.307149 h 1.970984 v -2.001307 h 2.001308 V 63.62233 h 6.30715 v 1.970984 h 2.0013 v 2.334858 h -2.0013 v 1.970984 h -2.30454 v -1.970984 h -3.66906 v 3.669063 h 2.00131 v 2.001307 h 2.0013 v 2.001307 h 1.97099 v 2.001307 h 2.0013 v 2.001307 h 2.00131 v 6.307149 h -2.00131 v 2.001307 h -3.97229 v 1.970984 h -6.337468 v -1.970984 z" />
    <path
       inkscape:connector-curvature="0"
       id="path883"
       style="font-style:normal;font-variant:normal;font-weight:normal;font-stretch:normal;font-size:medium;line-height:125%;font-family:'8-bit Limit BRK';-inkscape-font-specification:'8-bit Limit BRK';letter-spacing:0px;word-spacing:-0.01px;fill:#ffffff;fill-opacity:1;stroke:none;stroke-width:0.26458332px;stroke-linecap:butt;stroke-linejoin:miter;stroke-opacity:1"
       d="m 111.57995,75.872754 v -2.304535 h 3.97228 v -1.970984 h 2.33486 v 1.940661 h 1.66776 v -1.940661 h 4.30584 v 1.970984 h 2.00131 v 12.31107 h -2.00131 v 1.970984 h -4.27552 v -2.304535 h 1.94066 V 73.90177 h -1.63743 v 1.970984 h -2.00131 V 91.88321 h -2.0013 v 1.970984 h -2.33486 v -17.98144 z" />
    <path
       style="font-style:normal;font-variant:normal;font-weight:normal;font-stretch:normal;font-size:medium;line-height:125%;font-family:'8-bit Limit BRK';-inkscape-font-specification:'8-bit Limit BRK';letter-spacing:0px;word-spacing:-0.01px;fill:#ffffff;fill-opacity:1;stroke:none;stroke-width:0.26458332px;stroke-linecap:butt;stroke-linejoin:miter;stroke-opacity:1"
       d="m 126.50447,77.934707 v -2.334858 h 3.97229 v -1.970984 h 2.30454 v 14.282054 h -1.97099 v 1.970984 h -2.33485 V 77.934707 Z"
       id="path927"
       inkscape:connector-curvature="0" />
    <path
       style="font-style:normal;font-variant:normal;font-weight:normal;font-stretch:normal;font-size:medium;line-height:125%;font-family:'8-bit Limit BRK';-inkscape-font-specification:'8-bit Limit BRK';letter-spacing:0px;word-spacing:-0.01px;fill:#5773ff;fill-opacity:1;stroke:none;stroke-width:0.26458332px;stroke-linecap:butt;stroke-linejoin:miter;stroke-opacity:1"
       d="m 126.50447,69.929479 v -2.304535 h 1.97099 V 65.65396 h 2.33485 v 1.970984 h 1.97099 v 2.304535 h -1.97099 v 2.001307 h -2.33485 v -2.001307 z"
       id="path885"
       inkscape:connector-curvature="0" />
    <path
       inkscape:connector-curvature="0"
       id="path887"
       style="font-style:normal;font-variant:normal;font-weight:normal;font-stretch:normal;font-size:medium;line-height:125%;font-family:'8-bit Limit BRK';-inkscape-font-specification:'8-bit Limit BRK';letter-spacing:0px;word-spacing:-0.01px;fill:#ffffff;fill-opacity:1;stroke:none;stroke-width:0.26458332px;stroke-linecap:butt;stroke-linejoin:miter;stroke-opacity:1"
       d="m 133.4337,75.903077 v -2.304535 h 3.97229 v -2.001307 h 2.33486 v 3.972291 h 1.66776 v -1.970984 h 2.00131 v -2.001307 h 2.30453 v 2.001307 h 2.00131 v 4.305842 h -2.00131 v 1.970984 h -2.30453 V 75.9334 h -1.66776 v 1.970984 h -2.00131 v 9.672984 h 1.97099 v 2.304535 h -6.30715 V 75.903077 Z" />
    <path
       inkscape:connector-curvature="0"
       id="path889"
       style="font-style:normal;font-variant:normal;font-weight:normal;font-stretch:normal;font-size:medium;line-height:125%;font-family:'8-bit Limit BRK';-inkscape-font-specification:'8-bit Limit BRK';letter-spacing:0px;word-spacing:-0.01px;fill:#ffffff;fill-opacity:1;stroke:none;stroke-width:0.26458332px;stroke-linecap:butt;stroke-linejoin:miter;stroke-opacity:1"
       d="m 148.35822,77.934707 v -2.334858 h 3.97229 v -1.970984 h 2.30454 v 14.282054 h -1.97099 v 1.970984 H 150.3292 V 77.934707 Z m 0,-8.005228 v -2.304535 h 1.97098 V 65.65396 h 2.33486 v 1.970984 h 1.97099 v 2.304535 h -1.97099 v 2.001307 h -2.33486 v -2.001307 z" />
    <path
       inkscape:connector-curvature="0"
       id="path891"
       style="font-style:normal;font-variant:normal;font-weight:normal;font-stretch:normal;font-size:medium;line-height:125%;font-family:'8-bit Limit BRK';-inkscape-font-specification:'8-bit Limit BRK';letter-spacing:0px;word-spacing:-0.01px;fill:#ffffff;fill-opacity:1;stroke:none;stroke-width:0.26458332px;stroke-linecap:butt;stroke-linejoin:miter;stroke-opacity:1"
       d="M 159.25976,87.910919 V 77.904384 h -3.9723 v -2.304535 h 1.97099 v -2.001307 h 2.00131 v -6.003921 h 2.0013 v -1.970984 h 2.33486 v 7.974905 h 5.9736 v 2.304535 h -2.00131 v 2.001307 h -3.97229 v 7.671677 h 3.97229 v 2.334858 h -2.00131 v 1.970984 h -4.30584 v -1.970984 z" />
  </g>
</svg>
